<svg xmlns="http://www.w3.org/2000/svg" viewBox="0 0 384 512" width="24" height="24" fill="currentColor">
  <path d="M318.7 268.7c-.3-36.7 16.3-64.6 49.7-84.8-18.6-26.9-46.6-41.6-83.8-44.3-35.1-2.6-73.3 20.6-87.2 20.6-14.3 0-47.2-19.8-73.1-19.8-53.4.8-109.9 43.6-109.9 130.5 0 25.6 4.7 52.1 14.2 79.6 12.6 36.6 58.3 126.1 105.7 124.6 24.8-.6 42.3-17.6 74.5-17.6 31.5 0 48.1 17.6 73.1 17.6 47.6-.7 89.7-82.3 102.1-118.9-64.7-30.5-65.3-89.6-65.3-87.5zM256.6 96.7c26.8-32.3 24.3-61.6 23.6-72.7-23 1.3-49.7 15.6-65.6 34.7-16.8 20.2-26.8 45.3-24.7 72.3 26.2 2 50-11 66.7-34.3z"/>
</svg>
