<svg xmlns="http://www.w3.org/2000/svg" viewBox="0 0 48 48" width="24" height="24">
  <path fill="#FFC107" d="M43.6 20.5H42V20H24v8h11.3C33.9 32.4 29.5 36 24 36 16.8 36 11 30.2 11 23S16.8 10 24 10c3.1 0 5.9 1.1 8.1 2.9l5.7-5.7C34.5 4.6 29.5 3 24 3 12.3 3 3 12.3 3 24s9.3 21 21 21c11.6 0 20-8.1 20-20 0-1.2-.1-2.3-.4-3.5z"/>
  <path fill="#FF3D00" d="M6.3 14.7l6.6 4.8C14.5 15.6 18.9 12 24 12c3.1 0 5.9 1.1 8.1 2.9l5.7-5.7C34.5 4.6 29.5 3 24 3 15 3 7.6 8.4 6.3 14.7z"/>
  <path fill="#4CAF50" d="M24 45c5.4 0 10.4-1.8 14.3-4.9l-6.6-5.4C29.5 36 26.9 37 24 37c-5.4 0-9.9-3.6-11.5-8.5l-6.6 5.1C7.1 39.7 14.9 45 24 45z"/>
  <path fill="#1976D2" d="M43.6 20.5H42V20H24v8h11.3c-1.3 3.4-4.3 6-7.9 7.2l6.6 5.4C37.1 38.8 41 32.9 41 24c0-1.2-.1-2.3-.4-3.5z"/>
</svg>
